<?xml version="1.0" standalone="no"?>
<!DOCTYPE svg PUBLIC "-//W3C//DTD SVG 20010904//EN"
 "http://www.w3.org/TR/2001/REC-SVG-20010904/DTD/svg10.dtd">
<svg version="1.0" xmlns="http://www.w3.org/2000/svg"
 width="460.000000pt" height="460.000000pt" viewBox="0 0 460.000000 460.000000"
 preserveAspectRatio="xMidYMid meet">
<metadata>
Created by potrace 1.14, written by Peter Selinger 2001-2017
</metadata>
<g transform="translate(0.000000,460.000000) scale(0.100000,-0.100000)"
fill="#000000" stroke="none">
<path d="M0 2300 l0 -2300 2298 2 2297 3 3 2298 2 2297 -2300 0 -2300 0 0
-2300z m3437 1180 c43 -26 63 -68 63 -132 l0 -53 -180 -183 -180 -182 26 -47
c14 -27 41 -75 60 -108 67 -119 114 -314 114 -474 0 -122 -10 -190 -46 -311
-33 -111 -52 -155 -90 -210 -17 -25 -34 -56 -38 -68 -10 -30 -248 -268 -278
-277 -13 -4 -36 -17 -53 -30 -70 -52 -152 -83 -330 -126 -91 -21 -290 -26
-377 -8 -138 27 -281 80 -353 129 -22 14 -55 34 -73 43 l-33 16 -182 -179
-182 -180 -53 0 c-100 0 -152 51 -152 150 l0 55 180 183 180 182 -26 47 c-14
27 -41 75 -60 108 -67 119 -114 314 -114 474 0 122 10 190 46 311 33 111 52
155 90 210 17 25 34 56 38 68 10 30 248 268 278 277 13 4 37 17 53 30 70 52
152 83 330 126 91 21 290 26 377 8 138 -27 281 -80 353 -129 22 -14 55 -34 73
-43 l33 -16 182 179 182 180 55 0 c37 0 65 -6 87 -20z"/>
<path d="M2200 3040 c-89 -11 -129 -24 -240 -78 -80 -40 -109 -61 -185 -137
-76 -76 -97 -105 -136 -185 -69 -141 -82 -193 -82 -340 0 -89 5 -142 18 -185
17 -58 93 -225 103 -225 6 0 1032 1026 1032 1032 0 10 -166 86 -220 101 -70
19 -206 27 -290 17z"/>
<path d="M2404 2196 c-283 -282 -514 -516 -514 -518 0 -10 167 -86 225 -103
83 -24 287 -24 370 0 71 20 194 79 256 122 82 57 171 163 220 264 69 139 82
192 82 339 0 89 -5 142 -18 185 -17 58 -93 225 -103 225 -2 0 -236 -231 -518
-514z"/>
</g>
</svg>
